<?xml version="1.0" standalone="no"?>
<!DOCTYPE svg PUBLIC "-//W3C//DTD SVG 20010904//EN"
 "http://www.w3.org/TR/2001/REC-SVG-20010904/DTD/svg10.dtd">
<svg version="1.0" xmlns="http://www.w3.org/2000/svg"
 width="238.000000pt" height="238.000000pt" viewBox="0 0 238.000000 238.000000"
 preserveAspectRatio="xMidYMid meet">
<metadata>
Created by potrace 1.14, written by Peter Selinger 2001-2017
</metadata>
<g transform="translate(0.000000,238.000000) scale(0.100000,-0.100000)"
fill="#000000" stroke="none">
<path d="M0 1190 l0 -1190 1190 0 1190 0 0 1190 0 1190 -1190 0 -1190 0 0
-1190z m1522 323 c17 -15 18 -39 18 -331 0 -279 -2 -318 -17 -334 -15 -17 -39
-18 -334 -18 -275 0 -320 2 -333 16 -14 13 -16 58 -16 334 0 276 2 321 16 334
13 14 57 16 331 16 280 0 319 -2 335 -17z"/>
</g>
</svg>
